<svg width="234" height="47" viewBox="0 0 234 47" fill="none" xmlns="http://www.w3.org/2000/svg">
<path d="M0.55375 1.2H7.33775L10.4738 35.632H10.6018L13.9298 1.2H21.6098L24.9378 35.632H25.0658L28.2018 1.2H34.2818L29.7378 46H20.9698L17.7698 15.792H17.6418L14.4418 46H5.09775L0.55375 1.2ZM48.0188 46.64C44.5628 46.64 41.9174 45.6587 40.0828 43.696C38.2481 41.7333 37.3307 38.96 37.3307 35.376V11.824C37.3307 8.24 38.2481 5.46666 40.0828 3.504C41.9174 1.54133 44.5628 0.559998 48.0188 0.559998C51.4748 0.559998 54.1201 1.54133 55.9548 3.504C57.7894 5.46666 58.7068 8.24 58.7068 11.824V35.376C58.7068 38.96 57.7894 41.7333 55.9548 43.696C54.1201 45.6587 51.4748 46.64 48.0188 46.64ZM48.0188 40.24C50.4508 40.24 51.6667 38.768 51.6667 35.824V11.376C51.6667 8.432 50.4508 6.96 48.0188 6.96C45.5868 6.96 44.3708 8.432 44.3708 11.376V35.824C44.3708 38.768 45.5868 40.24 48.0188 40.24ZM73.6438 46.64C70.1878 46.64 67.5424 45.6587 65.7078 43.696C63.8731 41.7333 62.9557 38.96 62.9557 35.376V11.824C62.9557 8.24 63.8731 5.46666 65.7078 3.504C67.5424 1.54133 70.1878 0.559998 73.6438 0.559998C77.0998 0.559998 79.7451 1.54133 81.5798 3.504C83.4144 5.46666 84.3318 8.24 84.3318 11.824V35.376C84.3318 38.96 83.4144 41.7333 81.5798 43.696C79.7451 45.6587 77.0998 46.64 73.6438 46.64ZM73.6438 40.24C76.0758 40.24 77.2917 38.768 77.2917 35.824V11.376C77.2917 8.432 76.0758 6.96 73.6438 6.96C71.2118 6.96 69.9958 8.432 69.9958 11.376V35.824C69.9958 38.768 71.2118 40.24 73.6438 40.24ZM89.0928 1.2H99.8448C103.343 1.2 105.967 2.13866 107.717 4.016C109.466 5.89333 110.341 8.64533 110.341 12.272V34.928C110.341 38.5547 109.466 41.3067 107.717 43.184C105.967 45.0613 103.343 46 99.8448 46H89.0928V1.2ZM99.7168 39.6C100.869 39.6 101.743 39.2587 102.341 38.576C102.981 37.8933 103.301 36.784 103.301 35.248V11.952C103.301 10.416 102.981 9.30666 102.341 8.624C101.743 7.94133 100.869 7.6 99.7168 7.6H96.1328V39.6H99.7168ZM125.013 46.64C121.642 46.64 119.061 45.68 117.269 43.76C115.519 41.84 114.645 39.1307 114.645 35.632V11.568C114.645 8.06933 115.519 5.36 117.269 3.44C119.061 1.52 121.642 0.559998 125.013 0.559998C128.383 0.559998 130.943 1.52 132.693 3.44C134.485 5.36 135.381 8.06933 135.381 11.568V16.304H128.725V11.12C128.725 8.34667 127.551 6.96 125.205 6.96C122.858 6.96 121.685 8.34667 121.685 11.12V36.144C121.685 38.8747 122.858 40.24 125.205 40.24C127.551 40.24 128.725 38.8747 128.725 36.144V29.296H135.381V35.632C135.381 39.1307 134.485 41.84 132.693 43.76C130.943 45.68 128.383 46.64 125.013 46.64ZM139.593 1.2H150.025C153.651 1.2 156.297 2.05333 157.961 3.76C159.625 5.424 160.457 8.00533 160.457 11.504V14.256C160.457 18.9067 158.921 21.8507 155.849 23.088V23.216C157.555 23.728 158.75 24.7733 159.433 26.352C160.158 27.9307 160.521 30.0427 160.521 32.688V40.56C160.521 41.84 160.563 42.8853 160.649 43.696C160.734 44.464 160.947 45.232 161.289 46H154.121C153.865 45.2747 153.694 44.592 153.609 43.952C153.523 43.312 153.481 42.16 153.481 40.496V32.304C153.481 30.256 153.139 28.8267 152.457 28.016C151.817 27.2053 150.686 26.8 149.065 26.8H146.633V46H139.593V1.2ZM149.193 20.4C150.601 20.4 151.646 20.0373 152.329 19.312C153.054 18.5867 153.417 17.3707 153.417 15.664V12.208C153.417 10.5867 153.118 9.41333 152.521 8.688C151.966 7.96267 151.07 7.6 149.833 7.6H146.633V20.4H149.193ZM170.845 1.2H180.381L187.677 46H180.637L179.357 37.104V37.232H171.357L170.077 46H163.549L170.845 1.2ZM178.525 31.152L175.389 9.008H175.261L172.189 31.152H178.525ZM191.093 1.2H209.717V7.6H198.133V20.08H207.221V26.48H198.133V46H191.093V1.2ZM219.222 7.6H211.862V1.2H233.622V7.6H226.262V46H219.222V7.6Z" fill="black"/>
</svg>
